<?xml version="1.0" encoding="UTF-8"?>
<svg id="svg2" xmlns:rdf="http://www.w3.org/1999/02/22-rdf-syntax-ns#" xmlns="http://www.w3.org/2000/svg" xml:space="preserve" height="202.6" width="231.5" version="1.1" xmlns:cc="http://creativecommons.org/ns#" xmlns:dc="http://purl.org/dc/elements/1.1/">
  <path stroke="#000000" id="path3516" d="m220.52 65.032h-3.476v-10.702c0-10.036-8.165-18.202-18.202-18.202h-142.96l-35.03-35.031c-1.4645-1.4645-3.839-1.4645-5.303 0-1.4645 1.4645-1.4645 3.839 0 5.303l29.728 29.728h-27.076c-10.034 0.001-18.199 8.166-18.199 18.202v93.935c0 10.036 8.1655 18.202 18.202 18.202h157.41l35.03 35.03c0.732 0.732 1.692 1.0985 2.6515 1.0985s1.9195-0.366 2.6515-1.0985c1.4645-1.4645 1.4645-3.839 0-5.303l-29.728-29.728h12.624c10.036 0 18.202-8.1655 18.202-18.202v-10.702h3.476c6.052 0 10.976-4.9235 10.976-10.976v-50.581c0-6.052-4.924-10.976-10.976-10.976zm-202.32 93.938c-5.901 0-10.702-4.801-10.702-10.702v-93.935c0-5.901 4.801-10.702 10.702-10.702h34.576l115.34 115.34zm191.35-10.702c0 5.901-4.8005 10.702-10.702 10.702h-20.124l-107.29-107.29-0.0015-0.0015-8.0495-8.0495h135.46c5.901 0 10.702 4.801 10.702 10.702v14.452 65.032zm14.45-21.68c0 1.9165-1.5595 3.4755-3.476 3.4755h-3.476v-57.531h3.476c1.9165 0 3.476 1.559 3.476 3.4755v50.581z"/>
</svg>
