<?xml version="1.0" encoding="UTF-8" standalone="no"?>
<svg
   xmlns:dc="http://purl.org/dc/elements/1.1/"
   xmlns:cc="http://creativecommons.org/ns#"
   xmlns:rdf="http://www.w3.org/1999/02/22-rdf-syntax-ns#"
   xmlns:svg="http://www.w3.org/2000/svg"
   xmlns="http://www.w3.org/2000/svg"
   height="202.59637"
   width="231.5"
   xml:space="preserve"
   viewBox="0 0 231.5 202.59637"
   y="0px"
   x="0px"
   id="Capa_1"
   version="1.1"><metadata
     id="metadata3594"><rdf:RDF><cc:Work
         rdf:about=""><dc:format>image/svg+xml</dc:format><dc:type
           rdf:resource="http://purl.org/dc/dcmitype/StillImage" /><dc:title></dc:title></cc:Work></rdf:RDF></metadata><defs
     id="defs3592" /><path
     d="m 220.524,65.032375 -3.476,0 0,-10.7015 c 0,-10.0365 -8.165,-18.2015 -18.2015,-18.2015 l -142.9625,0 -35.0305,-35.031 c -1.4645,-1.4645 -3.839,-1.4645 -5.303,0 -1.4645,1.4645 -1.4645,3.839 0,5.303 l 29.7275,29.7275 -27.0765,0 C 8.1655,36.128875 0,44.294375 0,54.330375 l 0,93.935495 c 0,10.0365 8.1655,18.2015 18.2015,18.2015 l 157.4145,0 35.0305,35.0305 c 0.732,0.732 1.692,1.0985 2.6515,1.0985 0.9595,0 1.9195,-0.366 2.6515,-1.0985 1.4645,-1.4645 1.4645,-3.839 0,-5.303 l -29.7275,-29.7275 12.6245,0 c 10.0365,0 18.2015,-8.1655 18.2015,-18.2015 l 0,-10.7015 3.476,0 c 6.052,0 10.976,-4.9235 10.976,-10.9755 l 0,-50.580995 c 0,-6.052 -4.924,-10.9755 -10.976,-10.9755 z M 18.2015,158.96737 c -5.901,0 -10.7015,-4.801 -10.7015,-10.7015 l 0,-93.935495 c 0,-5.901 4.801,-10.7015 10.7015,-10.7015 l 34.5755,0 7.27,7.27 c -1.319,0.581 -2.241,1.8975 -2.241,3.4315 0,2.071 1.679,3.75 3.75,3.75 l 5.6725,0 86.4355,86.435495 -5.3985,0 c -2.071,0 -3.75,1.679 -3.75,3.75 0,2.071 1.679,3.75 3.75,3.75 l 7.226,0 c 1.534,0 2.8505,-0.922 3.4315,-2.241 l 9.1925,9.1925 -149.914,0 z m 191.3465,-10.7015 c 0,5.901 -4.8005,10.7015 -10.7015,10.7015 l -20.1245,0 -6.9515,-6.9515 5.3985,0 c 2.071,0 3.75,-1.679 3.75,-3.75 0,-2.071 -1.679,-3.75 -3.75,-3.75 l -7.226,0 c -1.534,0 -2.8505,0.922 -3.4315,2.241 L 71.4345,51.679375 c -5e-4,-5e-4 -0.001,-10e-4 -0.0015,-0.0015 l -8.0495,-8.0495 135.463,0 c 5.901,0 10.7015,4.801 10.7015,10.7015 l 0,14.4515 0,65.031995 0,14.4525 z M 224,126.58837 c 0,1.9165 -1.5595,3.4755 -3.476,3.4755 l -3.476,0 0,-57.531495 3.476,0 c 1.9165,0 3.476,1.559 3.476,3.4755 l 0,50.580505 z"
     id="path3516" /><path
     d="m 198.8465,137.29037 c -2.071,0 -3.75,1.679 -3.75,3.75 l 0,3.4755 -3.476,0 c -2.071,0 -3.75,1.679 -3.75,3.75 0,2.071 1.679,3.75 3.75,3.75 l 7.226,0 c 2.071,0 3.75,-1.679 3.75,-3.75 l 0,-7.2255 c 0,-2.071 -1.679,-3.75 -3.75,-3.75 z"
     id="path3518" /><path
     d="m 191.621,58.080375 3.4755,0 0,3.476 c 0,2.071 1.679,3.75 3.75,3.75 2.071,0 3.75,-1.679 3.75,-3.75 l 0,-7.226 c 0,-2.071 -1.679,-3.75 -3.75,-3.75 l -7.2255,0 c -2.071,0 -3.75,1.679 -3.75,3.75 0,2.071 1.679,3.75 3.75,3.75 z"
     id="path3520" /><path
     d="m 198.8465,72.257875 c -2.071,0 -3.75,1.679 -3.75,3.75 l 0,7.226 c 0,2.071 1.679,3.75 3.75,3.75 2.071,0 3.75,-1.679 3.75,-3.75 l 0,-7.226 c 0,-2.071 -1.679,-3.75 -3.75,-3.75 z"
     id="path3522" /><path
     d="m 198.8465,115.61288 c -2.071,0 -3.75,1.679 -3.75,3.75 l 0,7.226 c 0,2.07099 1.679,3.74999 3.75,3.74999 2.071,0 3.75,-1.679 3.75,-3.74999 l 0,-7.226 c 0,-2.071 -1.679,-3.75 -3.75,-3.75 z"
     id="path3524" /><path
     d="m 198.8465,93.935375 c -2.071,0 -3.75,1.679 -3.75,3.75 l 0,7.225995 c 0,2.071 1.679,3.75 3.75,3.75 2.071,0 3.75,-1.679 3.75,-3.75 l 0,-7.225995 c 0,-2.071 -1.679,-3.75 -3.75,-3.75 z"
     id="path3526" /><path
     d="m 25.4275,50.580375 -7.226,0 c -2.071,0 -3.75,1.679 -3.75,3.75 l 0,7.2255 c 0,2.071 1.679,3.75 3.75,3.75 2.071,0 3.75,-1.679 3.75,-3.75 l 0,-3.4755 3.476,0 c 2.071,0 3.75,-1.679 3.75,-3.75 0,-2.071 -1.679,-3.75 -3.75,-3.75 z"
     id="path3528" /><path
     d="m 25.4275,144.51587 -3.476,0 0,-3.476 c 0,-2.071 -1.679,-3.75 -3.75,-3.75 -2.071,0 -3.75,1.679 -3.75,3.75 l 0,7.226 c 0,2.071 1.679,3.75 3.75,3.75 l 7.226,0 c 2.071,0 3.75,-1.679 3.75,-3.75 0,-2.071 -1.679,-3.75 -3.75,-3.75 z"
     id="path3530" /><path
     d="m 18.2015,130.33837 c 2.071,0 3.75,-1.679 3.75,-3.75 l 0,-7.226 c 0,-2.071 -1.679,-3.75 -3.75,-3.75 -2.071,0 -3.75,1.679 -3.75,3.75 l 0,7.226 c 0,2.0715 1.679,3.75 3.75,3.75 z"
     id="path3532" /><path
     d="m 18.2015,86.983375 c 2.071,0 3.75,-1.679 3.75,-3.75 l 0,-7.226 c 0,-2.071 -1.679,-3.75 -3.75,-3.75 -2.071,0 -3.75,1.679 -3.75,3.75 l 0,7.226 c 0,2.0715 1.679,3.75 3.75,3.75 z"
     id="path3534" /><path
     d="m 18.2015,108.66088 c 2.071,0 3.75,-1.679 3.75,-3.75 l 0,-7.226005 c 0,-2.071 -1.679,-3.75 -3.75,-3.75 -2.071,0 -3.75,1.679 -3.75,3.75 l 0,7.226005 c 0,2.07149 1.679,3.75 3.75,3.75 z"
     id="path3536" /><path
     d="m 90.4595,50.580375 -7.2255,0 c -2.071,0 -3.75,1.679 -3.75,3.75 0,2.071 1.679,3.75 3.75,3.75 l 7.2255,0 c 2.071,0 3.75,-1.679 3.75,-3.75 0,-2.071 -1.679,-3.75 -3.75,-3.75 z"
     id="path3538" /><path
     d="m 47.1045,50.580375 -7.2255,0 c -2.071,0 -3.75,1.679 -3.75,3.75 0,2.071 1.679,3.75 3.75,3.75 l 7.226,0 c 2.071,0 3.75,-1.679 3.75,-3.75 0,-2.071 -1.679,-3.75 -3.7505,-3.75 z"
     id="path3540" /><path
     d="m 155.4915,50.580375 -7.226,0 c -2.071,0 -3.75,1.679 -3.75,3.75 0,2.071 1.679,3.75 3.75,3.75 l 7.226,0 c 2.071,0 3.75,-1.679 3.75,-3.75 0,-2.071 -1.679,-3.75 -3.75,-3.75 z"
     id="path3542" /><path
     d="m 177.169,50.580375 -7.226,0 c -2.071,0 -3.75,1.679 -3.75,3.75 0,2.071 1.679,3.75 3.75,3.75 l 7.226,0 c 2.071,0 3.75,-1.679 3.75,-3.75 0,-2.071 -1.679,-3.75 -3.75,-3.75 z"
     id="path3544" /><path
     d="m 112.137,50.580375 -7.226,0 c -2.071,0 -3.75,1.679 -3.75,3.75 0,2.071 1.679,3.75 3.75,3.75 l 7.226,0 c 2.071,0 3.75,-1.679 3.75,-3.75 0,-2.071 -1.679,-3.75 -3.75,-3.75 z"
     id="path3546" /><path
     d="m 133.8145,50.580375 -7.226,0 c -2.071,0 -3.75,1.679 -3.75,3.75 0,2.071 1.679,3.75 3.75,3.75 l 7.226,0 c 2.071,0 3.75,-1.679 3.75,-3.75 0,-2.071 -1.679,-3.75 -3.75,-3.75 z"
     id="path3548" /><path
     d="m 90.4595,144.51587 -7.2255,0 c -2.071,0 -3.75,1.679 -3.75,3.75 0,2.071 1.679,3.75 3.75,3.75 l 7.2255,0 c 2.071,0 3.75,-1.679 3.75,-3.75 0,-2.071 -1.679,-3.75 -3.75,-3.75 z"
     id="path3550" /><path
     d="m 47.1045,144.51587 -7.2255,0 c -2.071,0 -3.75,1.679 -3.75,3.75 0,2.071 1.679,3.75 3.75,3.75 l 7.226,0 c 2.071,0 3.75,-1.679 3.75,-3.75 0,-2.071 -1.679,-3.75 -3.7505,-3.75 z"
     id="path3552" /><path
     d="m 68.782,144.51587 -7.226,0 c -2.071,0 -3.75,1.679 -3.75,3.75 0,2.071 1.679,3.75 3.75,3.75 l 7.226,0 c 2.071,0 3.75,-1.679 3.75,-3.75 0,-2.071 -1.6785,-3.75 -3.75,-3.75 z"
     id="path3554" /><path
     d="m 112.137,144.51587 -7.226,0 c -2.071,0 -3.75,1.679 -3.75,3.75 0,2.071 1.679,3.75 3.75,3.75 l 7.226,0 c 2.071,0 3.75,-1.679 3.75,-3.75 0,-2.071 -1.679,-3.75 -3.75,-3.75 z"
     id="path3556" /><path
     d="m 133.8145,144.51587 -7.226,0 c -2.071,0 -3.75,1.679 -3.75,3.75 0,2.071 1.679,3.75 3.75,3.75 l 7.226,0 c 2.071,0 3.75,-1.679 3.75,-3.75 0,-2.071 -1.679,-3.75 -3.75,-3.75 z"
     id="path3558" /></svg>